<?xml version="1.0" encoding="utf-8"?>
<!-- Generator: Adobe Illustrator 25.4.1, SVG Export Plug-In . SVG Version: 6.00 Build 0)  -->
<svg version="1.1" id="Vrstva_1" xmlns="http://www.w3.org/2000/svg" xmlns:xlink="http://www.w3.org/1999/xlink" x="0px" y="0px"
	 viewBox="0 0 62.8 63.9" style="enable-background:new 0 0 62.8 63.9;" xml:space="preserve">
<style type="text/css">
	.st0{fill:#5D78FF;}
</style>
<g>
	<path class="st0" d="M43.6,54.9H5.1V23.6h38.5V54.9z M7.6,52.4h33.5V26.1H7.6V52.4z"/>
</g>
<g>
	<path class="st0" d="M11.1,26.1c-5.5,0-10-4.5-10-10s4.5-10,10-10c5.5,0,10,4.5,10,10S16.7,26.1,11.1,26.1z M11.1,8.5
		c-4.2,0-7.5,3.4-7.5,7.5s3.4,7.5,7.5,7.5c4.2,0,7.5-3.4,7.5-7.5S15.3,8.5,11.1,8.5z"/>
</g>
<g>
	<path class="st0" d="M29.6,25c-5.5,0-10-4.5-10-10c0-5.5,4.5-10,10-10s10,4.5,10,10C39.6,20.5,35.1,25,29.6,25z M29.6,7.4
		c-4.2,0-7.5,3.4-7.5,7.5c0,4.2,3.4,7.5,7.5,7.5c4.2,0,7.5-3.4,7.5-7.5C37.1,10.8,33.8,7.4,29.6,7.4z"/>
</g>
<g>
	<path class="st0" d="M56.3,40.5H41.1V27.3h15.3V40.5z M43.6,38h10.3v-8.2H43.6V38z"/>
</g>
</svg>
