<?xml version="1.0" encoding="utf-8"?>
<!-- Generator: Adobe Illustrator 25.4.1, SVG Export Plug-In . SVG Version: 6.00 Build 0)  -->
<svg version="1.1" id="Vrstva_1" xmlns="http://www.w3.org/2000/svg" xmlns:xlink="http://www.w3.org/1999/xlink" x="0px" y="0px"
	 viewBox="0 0 400.4 362.9" style="enable-background:new 0 0 400.4 362.9;" xml:space="preserve">
<style type="text/css">
	.st0{fill:url(#Path_1447_00000181054403875295762200000006086201756515935122_);}
</style>
<g id="blob-shape_1_" transform="translate(243.193 165.277)">
	
		<linearGradient id="Path_1447_00000060740946423231716400000004604094040423016345_" gradientUnits="userSpaceOnUse" x1="-679.0756" y1="1.3448" x2="-679.7415" y2="2.1688" gradientTransform="matrix(400.3649 0 0 362.9144 271965.5 -643.2955)">
		<stop  offset="0" style="stop-color:#6DBE98"/>
		<stop  offset="1" style="stop-color:#E9447B;stop-opacity:0"/>
	</linearGradient>
	<path id="Path_1447" style="fill:url(#Path_1447_00000060740946423231716400000004604094040423016345_);" d="M70.9-131.5
		c33.9,3.8,74.4,15.2,83.9,39.8c9.6,24.5-12.1,62.2-22.4,98.1s-9.3,70.2-21.2,104.9c-12,34.7-36.8,69.7-70,81.7
		c-33.1,11.9-74.4,0.6-101.1-23.9s-38.8-62.3-66.9-89.2c-28.2-27-72.4-43.1-96.1-74.5s-26.9-78-7.9-112.5s60.2-56.6,99.5-58
		s76.6,17.9,108.8,25.7C9.8-131.6,36.9-135.4,70.9-131.5z"/>
</g>
</svg>
